<svg id="svg830" xmlns="http://www.w3.org/2000/svg" viewBox="0 0 1720.5 283.6"><defs><style>.cls-1{fill:#e51717;}.cls-2{fill:#17e5e5;}.cls-3{fill:#e5e517;}.cls-4{fill:#f0f;}</style></defs><title>Logo final</title><path id="path865" class="cls-1" d="M195.8,138l5.9-29.1H65.4L28.1,295.6H62.8l14.4-71.5h90.1l5.9-29.3H82.7L94.2,138Z" transform="translate(-28.1 -34.2)"/><path id="path867" class="cls-1" d="M378.7,165.2c0-35.5-25.9-56.3-70.9-56.3H235.3L198,295.6h34.9l10.7-54.7H290l30.7,54.7h36.8L324,236.4C358.4,226.8,378.7,201.5,378.7,165.2Zm-88,47.2H249.4l14.9-74.1H304c25.3,0,39.7,9.9,39.7,30.1,0,28.8-19.4,44-53,44Z" transform="translate(-28.1 -34.2)"/><path id="path870" class="cls-1" d="M751.7,298.3c30.9,0,57.9-9.3,76-30.1l-20.3-21.9c-14.1,14.7-32.3,21.6-53.1,21.6-38.1,0-58.4-20.5-58.4-51.5,0-43.7,29.9-79.7,77.6-79.7,22.1,0,38.1,7.7,48.3,21.9l25.1-21.1c-13.1-20.3-38.9-31.2-70.9-31.2-69.3,0-114.9,49.1-114.9,112.3C661,265.7,694.9,298.3,751.7,298.3Z" transform="translate(-28.1 -34.2)"/><path id="path872" class="cls-1" d="M886.5,295.6h34.7l31.2-157.3h61.9l6.1-29.3H862l-5.9,29.3H918Z" transform="translate(-28.1 -34.2)"/><path id="path875" class="cls-1" d="M1242.6,298.3c68.8,0,114.4-49.1,114.4-112.3,0-47.2-33.1-79.7-89.3-79.7-68.8,0-114.4,49.1-114.4,112.3C1153.2,265.7,1186.3,298.3,1242.6,298.3Zm2.9-30.4c-37.3,0-57.3-20.8-57.3-51.5,0-43.2,29.3-79.7,76.3-79.7,37.3,0,57.6,20.8,57.6,51.5-.1,43.1-29.7,79.7-76.6,79.7Z" transform="translate(-28.1 -34.2)"/><path id="path877" class="cls-1" d="M1542.2,108.9l-25.9,130.7-76.8-130.7H1411l-37.3,186.7h34.4l26.1-130.7,76.5,130.7h28.5l37.3-186.7Z" transform="translate(-28.1 -34.2)"/><path id="path879" class="cls-1" d="M1650.9,298.3c49.1,0,82.4-23.5,82.4-60.5,0-57.1-94.1-40-94.1-74.9,0-16.3,16.8-27.7,45.1-27.7,18.7,0,36.8,5.1,50.7,14.4l13.6-27.5c-15.7-10.1-38.4-15.7-62.4-15.7-48.3,0-81.3,23.5-81.3,60.3,0,60,94.1,41.9,94.1,76.5,0,16.5-17.6,26.4-44.8,26.4-22.7,0-45.3-7.7-60.8-20.3l-14.7,27.2c14.6,12.4,42.9,21.8,72.2,21.8Z" transform="translate(-28.1 -34.2)"/><path id="path882" class="cls-2" d="M631.9,202.4H579.8l11.9-60.3H566l-12.3,60.3H442.1L607.4,34.2H575.8L405.3,206.9l-3.7,19.4H548.2l-13.8,68.5h26.8L575,226.3h52.5Z" transform="translate(-28.1 -34.2)"/><path id="path885" class="cls-3" d="M1057.8,34.2,1053,58h61.4l-47.3,236.7h27.2l52.1-260.5Z" transform="translate(-28.1 -34.2)"/><rect id="rect892" class="cls-4" x="403" y="274.8" width="712.8" height="8.8"/></svg>